# xmcd
#
# Track frame offsets:
#	150
#	16725
#	31429
#	50109
#	65873
#	84672
#	103127
#	119714
#	134413
#	153087
#	168855
#	187732
#
# Disc length: 2749 seconds
#
# Revision: 0
# Processed by: cddbd v1.5.2PL0 Copyright (c) Steve Scherf et al.
# Submitted via: audiograbber 1.83.01
#
DISCID=a10abb0c
DTITLE=Various Artist - CB20076 Hot Hits Vol. 76
DYEAR=1900
DGENRE=Country
TTITLE0=Joe Diffie - A Night To Remember (Vocals)
TTITLE1=Shane Minor - Slave To The Habit (Vocals)
TTITLE2=Reba McEntire - One Honest Heart (Vocals)
TTITLE3=Confederate Railroad - Cowboy Cadillac (vocals)
TTITLE4=Martina McBride - Whatever You Say (Vocals)
TTITLE5=Tractors, The - I Wouldn't Tell You No Lie (Vocals)
TTITLE6=Joe Diffie - A Night To Remember
TTITLE7=Shane Minor - Slave To The Habit
TTITLE8=Reba McEntire - One Honest Heart
TTITLE9=Confederate Railroad - Cowboy Cadillac
TTITLE10=Martina McBride - Whatever You Say
TTITLE11=Tractors, The - I Wouldn't Tell You No Lie
EXTD=
EXTT0=
EXTT1=
EXTT2=
EXTT3=
EXTT4=
EXTT5=
EXTT6=
EXTT7=
EXTT8=
EXTT9=
EXTT10=
EXTT11=
PLAYORDER=
